<?xml version="1.0" ?><!DOCTYPE svg  PUBLIC '-//W3C//DTD SVG 1.1//EN'  'http://www.w3.org/Graphics/SVG/1.1/DTD/svg11.dtd'><svg enable-background="new 0 0 512 512" height="512px" id="Layer_1" version="1.1" viewBox="0 0 512 512" width="512px" xml:space="preserve" xmlns="http://www.w3.org/2000/svg" xmlns:xlink="http://www.w3.org/1999/xlink"><g id="spa-alien"><path d="   M385.278,337.119C419.655,303.524,441,256.645,441,204.778c0-102.17-82.83-185-185-185s-185,82.83-185,185   c0,51.782,21.275,98.6,55.567,132.177l-0.034-0.034C179.39,389.778,203.143,495.492,256,495.492s76.601-105.714,129.459-158.571   L385.278,337.119z" fill="none" stroke="#000000" stroke-linecap="round" stroke-linejoin="round" stroke-miterlimit="10" stroke-width="17.619"/><line fill="none" stroke="#000000" stroke-linecap="round" stroke-linejoin="round" stroke-miterlimit="10" stroke-width="17.619" x1="229.571" x2="282.429" y1="407.397" y2="407.397"/><path d="   M388.143,231.206c0,35.238-17.619,88.095-105.714,88.095C282.429,266.444,300.048,231.206,388.143,231.206z" fill="none" stroke="#000000" stroke-linecap="round" stroke-linejoin="round" stroke-miterlimit="10" stroke-width="17.619"/><path d="   M123.857,231.206c0,35.238,17.619,88.095,105.714,88.095C229.571,266.444,211.952,231.206,123.857,231.206z" fill="none" stroke="#000000" stroke-linecap="round" stroke-linejoin="round" stroke-miterlimit="10" stroke-width="17.619"/></g></svg>