<?xml version="1.0" encoding="iso-8859-1"?>
<!-- Generator: Adobe Illustrator 19.0.0, SVG Export Plug-In . SVG Version: 6.00 Build 0)  -->
<svg version="1.1" id="Layer_1" xmlns="http://www.w3.org/2000/svg" xmlns:xlink="http://www.w3.org/1999/xlink" x="0px" y="0px"
	 viewBox="0 0 496.2 496.2" style="enable-background:new 0 0 496.2 496.2;" xml:space="preserve">
<path style="fill:#334D5C;" d="M496.2,248.1C496.2,111.1,385.1,0,248.1,0S0,111.1,0,248.1s111.1,248.1,248.1,248.1
	S496.2,385.1,496.2,248.1z"/>
<path style="fill:#D89C7D;" d="M180.3,356.2c0-2,2.5-47.5,2.5-47.5l12,0.3L327,328.2l-23.3,92.7L180.3,356.2z"/>
<path style="fill:#EAA786;" d="M172.3,272.2c0,0,20.8,62.2,44,74c24.5,12.5,57.3,28.7,90,21.3c32.7-7.3,46-25.3,54.7-52.7
	c8.7-27.3,13.3-108.7,4.7-121.3s-45.3-142.7-129.3-80.7S147,204.9,172.3,272.2z"/>
<path style="fill:#30150C;" d="M363.6,189.7c-11.8-1.7-29.7-3.4-33.1-2.1c-4.9,1.9-2.1,11.5-0.6,13.3c1,1.3,24.8,3.9,39.2,5.4
	c-0.8-6-1.9-10.5-3.4-12.8C365.1,192.7,364.4,191.4,363.6,189.7z"/>
<polygon style="fill:#DFA17C;" points="189.8,314.2 143.5,302.2 131.3,261.2 175.3,264.2 "/>
<path style="fill:#1D171B;" d="M367,198.2c-9.3-9.3-14-9.3-20.7-11.3s-37.3-38-48-58.7c0,0-6,44,11.3,58c0,0-20-7.3-19.3-60.7
	c0,0-22.7,5.3-33.3,64.7c0,0-12.7-32.7-12-52.7c0,0-16.7,17.3-23.3,61.3c0,0-6-16-4-22s-15.3,22-12,32s-17.3-8-18-12.7
	s-5.3,66,0.7,72.7s-29.8,13.4-43.3,6.7c-4-2-3.3,5,0.7,10.3s20,26.3,38.7,14.3l-2.7,19.3l-0.7,30c0,0-10.7-0.7-18.7,18.7l-20-16
	l2-21.3l-7.3-12l-13.3-30.7c0,0-2.7-23.3-1.3-19.3c1.3,4-6-4.7-7.3-14.7s-1.3-20.7-1.3-20.7s-5.3-24-5.3-30s1.3-36,3.3-47.3
	s8-28,14-36c6-8,32-41.3,56-42.7c0,0,44.7-46,129.3-11.3c0,0,46.7,8.7,69.3,76.7c0,0,11.3,24.7,8,50c0,0-10,66.7-19.3,78.7"/>
<path style="fill:#DE8484;" d="M310.6,319.7c0,0,20.5,0,30.2-9.5l-71,2C269.8,312.2,281.6,318.7,310.6,319.7z"/>
<path style="fill:#89342F;" d="M269.8,312.2c0,0,20.8-14.8,41.8-9.3c0,0,22.9-5.4,29.2,7.3L269.8,312.2z"/>
<path style="fill:#FAF8FB;" d="M240.7,218.5c0,0,22-15,39.3,4.3c0,0-22.7,10.3-39.7,0.8L240.7,218.5z"/>
<path style="fill:#F8FFFF;" d="M181,349.5c-17.8,0.8-22.2,34.7-22.2,34.7c54.9,7.8,123.1,85.7,140.6,106.6
	c17.8-3.7,34.8-9.4,51-16.7c-10.1-14.5-24.2-32.9-41.6-54.5C274.7,377.4,181,349.5,181,349.5z"/>
<path style="fill:#6395CA;" d="M158.8,384.2c-39.2-2.3-60.8,30.1-71.1,53.2c43.2,36.7,99.2,58.8,160.4,58.8
	c20.1,0,39.6-2.4,58.3-6.9c0,0,0,0,0-0.1C285.8,457.2,219.3,387.7,158.8,384.2z"/>
<g>
	<path style="fill:#BC8871;" d="M297.8,277.7c0,0-1-3,1.2-5.2c2.9-2.9,9.6-2.4,13.3,5.7C313.2,280,297.8,277.7,297.8,277.7z"/>
	<path style="fill:#BC8871;" d="M320,278c0,0,6.8-10.3,9.8-7.3s2.2,7.5,0.2,8S320,278,320,278z"/>
	<path style="fill:#BC8871;" d="M288.3,256.5c-0.3,4.2-0.8,8.2-0.9,12.1c0,2,0,4,0.4,5.8c0.4,1.9,1.3,3.7,3.1,4.7
		c-1-0.1-2.1-0.6-2.9-1.4s-1.4-1.8-1.7-2.8c-0.8-2.1-1-4.2-0.9-6.3c0-2.1,0.4-4.2,0.8-6.2C286.8,260.4,287.4,258.4,288.3,256.5z"/>
</g>
<path style="fill:#30150C;" d="M221.3,209.9l18-12c0,0,48.7,0,50.3-1.7c1.7-1.7,5.3-11,0.7-13.3s-40.3-1.3-43.7,0
	c-3.3,1.3-22.3,19.3-26.3,23.3S219.3,209.9,221.3,209.9z"/>
<g>
	<path style="fill:#89342F;" d="M348,253.5c-15.7,0-28.5-12.8-28.5-28.5s12.8-28.5,28.5-28.5s28.5,12.8,28.5,28.5
		S363.7,253.5,348,253.5z M348,199.5c-14.1,0-25.5,11.4-25.5,25.5s11.4,25.5,25.5,25.5s25.5-11.4,25.5-25.5S362.1,199.5,348,199.5z"
		/>
	<path style="fill:#89342F;" d="M295.3,222.1l-1.9-2.4c0.4-0.3,10.8-8.4,20.1-6.6c3.9,0.8,7,3.1,9.2,7l-2.6,1.5
		c-1.8-3.1-4.1-5-7.1-5.5C305,214.5,295.4,222,295.3,222.1z"/>
	
		<rect x="185.304" y="220.206" transform="matrix(-1 -0.0071 0.0071 -1 416.0312 444.8876)" style="fill:#89342F;" width="47.001" height="3"/>
</g>
<rect x="230.3" y="218.9" style="fill:#EFE8E8;" width="9" height="6.7"/>
<path style="fill:#89342F;" d="M267.3,252.2c-15.7,0-28.5-12.8-28.5-28.5s12.8-28.5,28.5-28.5s28.5,12.8,28.5,28.5
	S283,252.2,267.3,252.2z M267.3,198.2c-14.1,0-25.5,11.4-25.5,25.5s11.4,25.5,25.5,25.5s25.5-11.4,25.5-25.5
	S281.4,198.2,267.3,198.2z"/>
<path style="fill:#FAF8FB;" d="M325.8,221.7c0,0,5,12,32.5,6C358.3,227.7,346.8,204.7,325.8,221.7z"/>
<g>
	<path style="fill:#36363D;" d="M342.8,221.7c0-2.4-1-4.6-2.5-6.3c-4.2,0.1-9,1.8-14.5,6.3c0,0,2.4,5.8,13.2,7.3
		C341.3,227.4,342.8,224.7,342.8,221.7z"/>
	<path style="fill:#36363D;" d="M260.8,219.2c0-2.4-1-4.6-2.5-6.2c-6.6,0.2-12.2,2.6-15.3,4.1c-0.2,0.7-0.2,1.4-0.2,2.1
		c0,2.8,1.3,5.3,3.3,6.9c2.9,0.9,5.9,1.4,8.8,1.5C258.4,226.4,260.8,223.1,260.8,219.2z"/>
</g>
<g>
	<path style="fill:#DFA17C;" d="M325.8,226.7c2.1,1.9,4.3,3.4,6.7,4.6c2.3,1.2,4.8,2.2,7.3,2.9s5.1,1.2,7.8,1.6
		c2.7,0.4,5.4,0.6,8.2,0.9c-2.7,0.9-5.5,1.4-8.3,1.4c-2.8,0.1-5.7-0.3-8.5-1.1s-5.4-2-7.8-3.8C328.9,231.6,326.9,229.4,325.8,226.7z
		"/>
	<path style="fill:#DFA17C;" d="M280.3,227.2c-0.6,1.2-1.6,2.1-2.6,2.9c-1,0.8-2.2,1.5-3.3,2c-2.3,1.1-4.9,1.9-7.4,2.3
		c-2.5,0.4-5.1,0.6-7.6,0.5s-5.1-0.5-7.5-1.2c2.5-0.5,5-0.8,7.4-1.2c2.4-0.3,4.9-0.7,7.2-1.1c2.4-0.4,4.7-0.9,7.1-1.5
		c1.2-0.3,2.3-0.7,3.4-1.1C278.1,228.4,279.3,227.9,280.3,227.2z"/>
</g>
<path style="fill:#BC8871;" d="M326,246.5c1.2,1.2,2.1,2.5,3,3.9s1.7,2.8,2.4,4.3c0.7,1.5,1.3,3,1.8,4.6c0.4,1.6,0.8,3.3,0.4,5
	c-0.5-1.6-1.2-3-1.9-4.4l-2.1-4.3c-0.7-1.4-1.4-2.9-2-4.4C327,249.7,326.5,248.2,326,246.5z"/>
<g>
</g>
<g>
</g>
<g>
</g>
<g>
</g>
<g>
</g>
<g>
</g>
<g>
</g>
<g>
</g>
<g>
</g>
<g>
</g>
<g>
</g>
<g>
</g>
<g>
</g>
<g>
</g>
<g>
</g>
</svg>
